# xmcd
#
# Track frame offsets: 
#        150
#        11497
#        31618
#        42487
#        65346
#        83720
#        102508
#        131402
#        149282
#        162132
#        180775
#        195934
#        200338
#        218450
#        238544
#
# Disc length: 3371 seconds
#
# Revision: 0
# Processed by: cddbd v1.5.2PL0 Copyright (c) Steve Scherf et al.
# Submitted via: ExactAudioCopy v0.99pb4
#
DISCID=b40d290f
DTITLE=Various Artist - The Essential Blues Collection 1
DYEAR=2006
DGENRE=Blues
TTITLE0=01. Robert Johnson  Cross Road Blues    [0:02:31.22]
TTITLE1=02. Buddy Guy   Damn Right I've Got The Blues    [0:04:28.21]
TTITLE2=03. SRV And Double Trouble The House Is Rockin'    [0:02:24.69
TTITLE2=]
TTITLE3=04. Bob Dylan   Cry A While     [0:05:04.59]
TTITLE4=05. Johnny Winter Cheap tequila  [0:04:04.74]
TTITLE5=06. Keb' Mo' Come On In My Kitchen     [0:04:10.38]
TTITLE6=07. Jimmy Vaughan Dengue Woman Blues     [0:06:25.19]
TTITLE7=08. Muddy Waters I'm Your Hoochie Coochie Man    [0:03:58.30]
TTITLE8=09. Fleetwood Mac Black Magic Woman     [0:02:51.25]
TTITLE9=10. Edgar Winter Tobacco Road      [0:04:08.43]
TTITLE10=11. The Fabulous Thunderbirds Tuff Enuff    [0:03:22.09]
TTITLE11=12. Leadbelly Black Betty       [0:00:58.54]
TTITLE12=13. Chet Atkins and Mark Knopfler Poor Boy Blues    [0:04:01.
TTITLE12=37]
TTITLE13=14. Tommy Emmanuel Workin' Man Blues     [0:04:27.69]
TTITLE14=15. Billie Holiday Gloomy Sunday     [0:03:11.17]
EXTD=
EXTT0=
EXTT1=
EXTT2=
EXTT3=
EXTT4=
EXTT5=
EXTT6=
EXTT7=
EXTT8=
EXTT9=
EXTT10=
EXTT11=
EXTT12=
EXTT13=
EXTT14=
PLAYORDER=
